<svg width="88" height="88" viewBox="0 0 88 88" fill="none" xmlns="http://www.w3.org/2000/svg">
<path d="M88 44C88 68.3005 68.3005 88 44 88C19.6995 88 0 68.3005 0 44C0 19.6995 19.6995 0 44 0C68.3005 0 88 19.6995 88 44Z" fill="#A4C3B2"/>
<path d="M44.025 15.2755C53.2197 15.2755 60.6735 22.6978 60.6735 31.8537C60.6735 41.0096 53.2197 48.4319 44.025 48.4319C34.8302 48.4319 27.3764 41.0096 27.3764 31.8537C27.3764 22.6978 34.8302 15.2755 44.025 15.2755ZM44.025 22.3001C38.7263 22.3001 34.4309 26.5774 34.4309 31.8537C34.4309 37.13 38.7263 41.4073 44.025 41.4073C49.3236 41.4073 53.619 37.13 53.619 31.8537C53.619 26.5774 49.3236 22.3001 44.025 22.3001Z" fill="#0F291F"/>
<path d="M47.9754 54.6136C47.9754 56.9705 47.4341 59.2961 46.3929 61.4126C45.3516 63.5291 43.838 65.3804 41.9678 66.8249C40.0977 68.2694 37.9205 69.2689 35.6029 69.7468C33.2852 70.2248 30.8885 70.1685 28.596 69.5824C26.3036 68.9963 24.1761 67.8958 22.3763 66.3652C20.5766 64.8345 19.1523 62.9143 18.2123 60.7513C17.2723 58.5883 16.8416 56.2399 16.9531 53.8856C17.0646 51.5314 17.7153 49.2338 18.8555 47.1685C19.9958 45.1032 26.1359 49.7898 25.5575 50.8374C24.9792 51.8849 24.6491 53.0503 24.5926 54.2444C24.536 55.4385 24.7545 56.6296 25.2312 57.7267C25.708 58.8238 26.4305 59.7978 27.3433 60.5742C28.2562 61.3505 29.3352 61.9087 30.498 62.206C31.6608 62.5033 32.8764 62.5318 34.052 62.2894C35.2275 62.047 36.3318 61.54 37.2804 60.8073C38.2289 60.0747 38.9966 59.1357 39.5248 58.0621C40.0529 56.9886 40.3275 55.8091 40.3275 54.6136H47.9754Z" fill="#0F291F"/>
<path d="M40.3566 54.6136C40.3566 56.9705 40.898 59.2961 41.9392 61.4126C42.9805 63.5291 44.4941 65.3804 46.3642 66.8249C48.2344 68.2694 50.4116 69.2689 52.7292 69.7468C55.0469 70.2248 57.4436 70.1685 59.7361 69.5824C62.0285 68.9963 64.156 67.8958 65.9557 66.3652C67.7555 64.8345 69.1798 62.9143 70.1198 60.7513C71.0598 58.5883 71.4905 56.2399 71.379 53.8856C71.2675 51.5314 70.6168 49.2338 69.4765 47.1685C68.3363 45.1032 62.1962 49.7898 62.7746 50.8374C63.3529 51.8849 63.683 53.0503 63.7395 54.2444C63.7961 55.4385 63.5776 56.6296 63.1008 57.7267C62.6241 58.8238 61.9016 59.7978 60.9888 60.5742C60.0759 61.3505 58.9968 61.9087 57.8341 62.206C56.6713 62.5033 55.4557 62.5318 54.2801 62.2894C53.1046 62.047 52.0003 61.54 51.0517 60.8073C50.1032 60.0747 49.3355 59.1357 48.8073 58.0621C48.2792 56.9886 48.0046 55.8091 48.0046 54.6136H40.3566Z" fill="#0F291F"/>
<path d="M40.3566 46.746H47.9754V56.0186H40.3566V46.746Z" fill="#0F291F"/>
</svg>
