<svg width="155" height="155" viewBox="0 0 155 155" fill="none" xmlns="http://www.w3.org/2000/svg">
<circle cx="77.5" cy="77.5" r="77.5" fill="#A4C3B2"/>
<path d="M78 29C93.2324 29 105.581 41.2954 105.581 56.4625C105.581 71.6296 93.2324 83.925 78 83.925C62.7676 83.925 50.4194 71.6296 50.4194 56.4625C50.4194 41.2954 62.7676 29 78 29ZM78 37.6724C67.5779 37.6724 59.129 46.085 59.129 56.4625C59.129 66.84 67.5779 75.2526 78 75.2526C88.4222 75.2526 96.871 66.84 96.871 56.4625C96.871 46.085 88.4222 37.6724 78 37.6724Z" fill="#2A3A35"/>
<path d="M82.3548 101.428C82.3548 105.176 81.4941 108.873 79.8384 112.238C78.1828 115.604 75.776 118.547 72.8024 120.844C69.8287 123.14 66.3669 124.73 62.6817 125.489C58.9965 126.249 55.1856 126.16 51.5404 125.228C47.8952 124.296 44.5124 122.546 41.6507 120.113C38.789 117.679 36.5242 114.626 35.0296 111.187C33.535 107.748 32.8501 104.014 33.0274 100.271C33.2047 96.5277 34.2394 92.8745 36.0524 89.5908C37.8655 86.307 44.874 91.6562 43.7024 93.7783C42.5307 95.9005 41.862 98.2613 41.7475 100.68C41.6329 103.099 42.0755 105.512 43.0414 107.735C44.0073 109.957 45.4709 111.93 47.3202 113.503C49.1696 115.076 51.3557 116.207 53.7114 116.809C56.0671 117.411 58.5299 117.469 60.9114 116.978C63.293 116.487 65.5301 115.46 67.4519 113.975C69.3736 112.491 70.9289 110.589 71.9989 108.414C73.0688 106.24 73.6251 103.85 73.6251 101.428H82.3548Z" fill="#2A3A35"/>
<path d="M73.6452 101.428C73.6452 105.176 74.5059 108.873 76.1616 112.238C77.8172 115.604 80.224 118.547 83.1976 120.844C86.1713 123.14 89.6331 124.73 93.3183 125.489C97.0035 126.249 100.814 126.16 104.46 125.228C108.105 124.296 111.488 122.546 114.349 120.113C117.211 117.679 119.476 114.626 120.97 111.187C122.465 107.748 123.15 104.014 122.973 100.271C122.795 96.5277 121.761 92.8745 119.948 89.5908C118.135 86.307 111.126 91.6562 112.298 93.7783C113.469 95.9005 114.138 98.2613 114.253 100.68C114.367 103.099 113.925 105.512 112.959 107.735C111.993 109.957 110.529 111.93 108.68 113.503C106.83 115.076 104.644 116.207 102.289 116.809C99.9329 117.411 97.4701 117.469 95.0886 116.978C92.707 116.487 90.4699 115.46 88.5481 113.975C86.6264 112.491 85.0711 110.589 84.0011 108.414C82.9312 106.24 82.3749 103.85 82.3749 101.428H73.6452Z" fill="#2A3A35"/>
<path d="M73.6452 83.3469H82.3548V101.848H73.6452V83.3469Z" fill="#2A3A35"/>
</svg>
